<svg xmlns="http://www.w3.org/2000/svg" version="1.1" xmlns:xlink="http://www.w3.org/1999/xlink" xmlns:svgjs="http://svgjs.com/svgjs" width="512" height="512" x="0" y="0" viewBox="0 0 569.188 569.188" style="enable-background:new 0 0 512 512" xml:space="preserve" class=""><g><path d="M456.077 143.592 267.09 69.706a26.122 26.122 0 0 0-19.965.394 26.143 26.143 0 0 0-13.852 14.415L111.229 396.808a26.136 26.136 0 0 0 .394 19.967 26.14 26.14 0 0 0 14.417 13.852l188.945 73.829c13.438 5.249 28.569-1.375 33.818-14.812l122.084-312.237a26.18 26.18 0 0 0-.396-19.986 26.098 26.098 0 0 0-14.414-13.829zM260.898 434.897c-5.173 13.248-20.116 19.741-33.33 14.584-13.286-5.175-19.816-20.062-14.641-33.311 5.214-13.269 20.098-19.817 33.348-14.623 13.23 5.159 19.802 20.1 14.623 33.35zm168.42-250.226-89.919 230.107a6.634 6.634 0 0 1-3.503 3.631 6.623 6.623 0 0 1-5.046.096l-158.195-61.822c-3.386-1.338-5.062-5.155-3.725-8.545l89.919-230.104a6.612 6.612 0 0 1 3.501-3.633 6.607 6.607 0 0 1 5.043-.094l158.178 61.822c3.387 1.335 5.06 5.157 3.747 8.542zM111.397 449.652c-4.292-9.731-15.582-14.154-25.386-9.917-9.747 4.27-14.19 15.639-9.917 25.384l8.731 19.895C47.188 462.9 29.87 416.247 46.264 374.317c3.878-9.916-1.014-21.099-10.933-24.975-9.957-3.874-21.098 1.034-24.974 10.936-24.409 62.426 3.333 132.525 61.992 162.146l-22.489 9.841c-9.745 4.274-14.188 15.64-9.914 25.389 3.162 7.228 10.236 11.534 17.67 11.534a19.06 19.06 0 0 0 7.715-1.617l52.544-23.017c7.83-3.462 13.872-9.768 17.05-17.842 3.089-7.997 2.899-16.71-.526-24.614l-23.002-52.446zM496.895 46.746l22.471-9.843c9.749-4.272 14.189-15.639 9.918-25.388-4.271-9.729-15.565-14.131-25.388-9.917l-52.431 22.98c-7.885 3.462-13.964 9.786-17.106 17.801-3.123 8.038-2.954 16.805.508 24.692l22.96 52.41c3.162 7.228 10.239 11.536 17.673 11.536 2.576 0 5.191-.508 7.713-1.62 9.749-4.271 14.192-15.639 9.919-25.384l-8.713-19.875c37.602 22.095 54.896 68.769 38.523 110.733-3.876 9.917 1.036 21.078 10.952 24.954a19.066 19.066 0 0 0 7.002 1.318c7.695 0 14.979-4.647 17.953-12.271 24.372-62.46-3.351-132.542-61.954-162.126z" fill="#3cafff" data-original="#000000"></path></g></svg>